<svg width="103" height="26" viewBox="0 0 103 26" fill="none" xmlns="http://www.w3.org/2000/svg">
<path d="M7.03776 0.974901L0.338877 3.16886L1.09945 5.88937L5.01932 4.6315V20.2817H8.12012V0.974901H7.03776ZM12.4685 12.2957H19.6647V9.69223H12.4685V12.2957ZM22.1439 16.4204C23.6357 19.0239 26.2685 20.6035 29.4278 20.6035C33.1429 20.6035 35.8927 18.3803 35.8927 15.0162C35.8927 12.4712 34.4008 10.9501 31.2707 9.51671L29.106 8.52212C27.2046 7.55678 26.5318 7.2935 26.4148 5.77236C26.4148 4.25121 27.7019 3.43213 29.34 3.43213C30.9782 3.43213 32.3823 4.25121 33.4062 5.77236L35.5709 4.10495C34.3715 2.028 32.0605 0.653121 29.34 0.653121C26.0052 0.653121 23.2555 2.73007 23.2555 5.88937C23.2555 8.46361 24.9521 9.95551 27.7604 11.2426L29.8958 12.2372C31.9143 13.1733 32.7334 13.7584 32.7334 15.1332C32.7334 16.7714 31.3877 17.8245 29.3985 17.8245C27.1753 17.8245 25.6249 16.6251 24.3378 14.753L22.1439 16.4204ZM54.5733 13.0856C54.5733 8.8439 51.5895 5.59684 47.5234 5.59684C45.4172 5.59684 43.5743 6.44517 42.5212 7.93706V5.91862H39.6544V25.5472H42.7259V18.5266C43.8668 19.8429 45.5634 20.6035 47.5234 20.6035C51.5895 20.6035 54.5733 17.3857 54.5733 13.0856ZM51.414 13.1148C51.414 15.8646 49.4833 17.7953 47.0261 17.7953C44.7736 17.7953 42.6967 16.2449 42.6967 13.0856C42.6967 9.95551 44.7736 8.40511 47.0261 8.40511C49.5126 8.40511 51.414 10.365 51.414 13.1148ZM69.5174 11.5937C69.5174 7.73229 67.1771 5.59684 63.6376 5.59684C61.1511 5.59684 59.0156 6.59144 57.5822 8.66838L59.3666 10.4821C60.566 9.04867 61.7361 8.3466 63.345 8.3466C65.305 8.3466 66.4166 9.42896 66.4166 11.4181V12.3542H62.3504C59.1034 12.3542 57.0557 13.9631 57.0557 16.4496C57.0557 18.9361 59.0449 20.6035 62.0579 20.6035C64.0178 20.6035 65.5975 19.9307 66.6506 18.6728V20.2817H69.5174V11.5937ZM66.4166 14.8407C66.4166 16.8007 64.7784 18.234 62.7015 18.234C61.2096 18.234 60.1857 17.532 60.1857 16.3326C60.1857 15.1625 61.0926 14.5774 62.7307 14.5774H66.4166V14.8407ZM72.8853 13.0856C72.8853 17.2687 76.2494 20.6035 80.491 20.6035C83.0945 20.6035 85.2592 19.3456 86.5464 17.2687L84.3817 15.6013C83.3286 17.0347 82.0414 17.766 80.5203 17.766C77.9461 17.766 76.0154 15.7183 76.0154 13.0856C76.0154 10.4821 77.9461 8.43436 80.5203 8.43436C82.0707 8.43436 83.3578 9.16568 84.3817 10.6283L86.5464 8.93166C85.2885 6.85471 83.153 5.59684 80.491 5.59684C76.3664 5.53834 72.7976 8.96091 72.8853 13.0856ZM102.577 14.1094C102.723 13.4366 102.811 12.793 102.811 12.1787C102.811 8.43436 99.9732 5.59684 96.1703 5.59684C92.1042 5.50908 88.6523 8.99016 88.7401 13.1148C88.7401 17.3565 92.0749 20.6035 96.4628 20.6035C98.6568 20.6035 100.558 19.8429 102.196 18.2925L100.734 16.1863C99.4466 17.3272 98.0425 17.883 96.5506 17.883C94.0934 17.883 92.2504 16.4496 91.8701 14.1094H102.577ZM91.9287 11.7107C92.3967 9.57522 94.0349 8.20034 96.0533 8.20034C98.0717 8.20034 99.7099 9.51671 99.7391 11.7107H91.9287Z" fill="black"/>
</svg>
